<?xml version="1.0" encoding="UTF-8" standalone="no"?>
<svg
   xmlns:dc="http://purl.org/dc/elements/1.1/"
   xmlns:cc="http://creativecommons.org/ns#"
   xmlns:rdf="http://www.w3.org/1999/02/22-rdf-syntax-ns#"
   xmlns:svg="http://www.w3.org/2000/svg"
   xmlns="http://www.w3.org/2000/svg"
   xmlns:sodipodi="http://sodipodi.sourceforge.net/DTD/sodipodi-0.dtd"
   xmlns:inkscape="http://www.inkscape.org/namespaces/inkscape"
   width="210mm"
   height="297mm"
   viewBox="0 0 210 297"
   version="1.1"
   id="svg1096"
   inkscape:version="1.0.2 (1.0.2+r75+1)"
   sodipodi:docname="farel_logo.svg">
  <defs
     id="defs1090" />
  <sodipodi:namedview
     id="base"
     pagecolor="#ffffff"
     bordercolor="#666666"
     borderopacity="1.0"
     inkscape:pageopacity="0.0"
     inkscape:pageshadow="2"
     inkscape:zoom="0.49497475"
     inkscape:cx="379.20193"
     inkscape:cy="560.89199"
     inkscape:document-units="mm"
     inkscape:current-layer="layer1"
     inkscape:document-rotation="0"
     showgrid="false"
     inkscape:window-width="1853"
     inkscape:window-height="1025"
     inkscape:window-x="1347"
     inkscape:window-y="27"
     inkscape:window-maximized="1" />
  <metadata
     id="metadata1093">
    <rdf:RDF>
      <cc:Work
         rdf:about="">
        <dc:format>image/svg+xml</dc:format>
        <dc:type
           rdf:resource="http://purl.org/dc/dcmitype/StillImage" />
        <dc:title></dc:title>
      </cc:Work>
    </rdf:RDF>
  </metadata>
  <g
     inkscape:label="Layer 1"
     inkscape:groupmode="layer"
     id="layer1">
    <path
       style="fill:#000000;stroke-width:0.999999"
       d="m 37.349103,167.34471 c -1.936902,-0.32486 -3.96886,-1.25412 -5.590982,-2.55686 -4.016679,-3.22591 -5.488379,-8.72479 -3.668508,-13.70696 1.821635,-4.98693 6.976494,-8.20281 12.421611,-7.74922 0.520949,0.0433 0.947201,0.11413 0.947201,0.15724 0,0.0431 -0.255729,0.14383 -0.568276,0.22401 -1.912022,0.49004 -3.790498,1.64615 -5.4174,3.33416 -1.440186,1.49428 -2.458812,3.30194 -3.005892,5.33434 -0.258967,0.9621 -0.286036,1.24769 -0.286036,3.01889 0,1.77118 0.02702,2.0568 0.286036,3.01887 0.590677,2.19433 1.721689,4.10309 3.374945,5.6958 1.494682,1.43992 2.998053,2.34745 4.766242,2.87716 0.467101,0.14003 0.849532,0.28416 0.849822,0.32047 0.0019,0.23071 -2.794162,0.25254 -4.108763,0.0322 z m 5.522171,0.10988 c -0.149417,-0.027 -0.430651,-0.0748 -0.624916,-0.10631 l -0.353217,-0.0572 v -11.89074 -11.89077 l 0.407557,-0.0864 c 0.224148,-0.0476 1.190064,-0.0811 2.146466,-0.0746 2.20181,0.0156 3.293268,0.27382 5.216703,1.23712 3.243284,1.62431 5.375367,4.26725 6.383652,7.91311 0.198552,0.71803 0.231361,1.1294 0.231361,2.90159 0,1.77216 -0.03283,2.18356 -0.231361,2.90157 -1.008285,3.64588 -3.140368,6.28882 -6.383652,7.91313 -1.787463,0.89518 -2.999995,1.19828 -4.999345,1.24963 -0.836846,0.0223 -1.643809,0.0179 -1.793248,-0.0112 z m 3.55927,-0.42661 c 3.629691,-0.68854 6.723916,-3.01775 8.378244,-6.30682 0.530017,-1.05373 0.918076,-2.21088 1.110152,-3.31018 0.182472,-1.04493 0.182472,-2.97627 0,-4.02121 -0.847366,-4.84988 -4.644095,-8.69805 -9.488396,-9.61699 -0.93429,-0.17734 -3.784065,-0.23157 -3.608182,-0.0688 0.05673,0.0525 0.298878,0.15812 0.53799,0.23444 1.388549,0.44363 3.068249,1.45544 4.317343,2.60066 2.683071,2.45995 4.182533,6.41898 3.792642,10.01374 -0.387791,3.57549 -2.187226,6.68669 -5.048168,8.7282 -0.809643,0.57777 -2.173848,1.29187 -2.946192,1.54223 -0.302698,0.0981 -0.596819,0.22134 -0.653615,0.27371 -0.175995,0.1626 2.674941,0.1081 3.608182,-0.069 z m 40.83706,-2.84511 c -0.391298,-0.10631 -0.836779,-0.49374 -0.990417,-0.86143 -0.116586,-0.27896 -0.150757,-1.06356 -0.150757,-3.46165 v -3.1009 h 0.706436 0.706435 v 2.83287 c 0,1.74491 0.04311,2.91358 0.112566,3.04308 0.101174,0.18894 0.237816,0.21016 1.35469,0.21016 1.116897,0 1.253539,-0.0201 1.354691,-0.21016 0.06924,-0.12954 0.112565,-1.29817 0.112565,-3.04308 v -2.83287 h 0.706414 0.706435 v 3.1009 c 0,3.43782 -0.03127,3.62976 -0.666971,4.08308 -0.344552,0.24574 -0.462053,0.2618 -2.050071,0.27987 -0.926496,0.0112 -1.782371,-0.007 -1.901927,-0.04 z m -23.964232,-3.72881 v -3.69517 l 0.570576,0.002 0.570576,0.002 1.183095,2.55552 c 0.650712,1.40553 1.194665,2.54179 1.208825,2.52499 0.0134,-0.0179 0.553647,-1.16759 1.198886,-2.55735 l 1.17318,-2.52684 h 0.525237 0.525237 v 3.69517 3.69516 h -0.652097 -0.652073 v -1.86932 c 0,-1.20101 -0.03752,-1.83182 -0.104972,-1.76444 -0.05762,0.0576 -0.446397,0.88665 -0.863781,1.84216 l -0.758922,1.73726 H 66.8211 66.415062 l -0.78139,-1.77045 c -0.429758,-0.97375 -0.81201,-1.80108 -0.849465,-1.83852 -0.03752,-0.0375 -0.06812,0.77148 -0.06812,1.79761 v 1.8657 h -0.706413 -0.706436 z m 8.803199,0 v -3.69517 h 2.554001 2.554024 v 0.59776 0.59773 H 75.421348 73.6281 v 0.92379 0.9238 h 1.358509 1.358533 v 0.59775 0.59774 H 74.986609 73.6281 v 0.92379 0.9238 h 1.847587 1.847588 v 0.65209 0.65208 h -2.608363 -2.608341 z m 8.911857,0.59774 v -3.09742 h -1.249831 -1.249831 v -0.59773 -0.59776 h 3.206098 3.206097 v 0.59776 0.59773 H 83.68113 82.431299 v 3.09742 3.09742 h -0.706435 -0.706436 z m -16.700741,-7.01618 c -0.468419,-0.1416 -0.87821,-0.66019 -0.96145,-1.21694 -0.03797,-0.25376 -0.05316,-1.54612 -0.03372,-2.87188 0.03261,-2.23612 0.05159,-2.43266 0.26033,-2.71702 0.442667,-0.60287 0.784159,-0.68658 2.801577,-0.68676 2.050004,-2.2e-4 2.432882,0.0951 2.800215,0.69755 0.185375,0.30417 0.204136,0.58587 0.204583,3.08435 5.36e-4,3.864 0.07817,3.75985 -2.825319,3.79298 -1.046052,0.0112 -2.056816,-0.025 -2.246122,-0.0822 z m 3.550314,-1.40662 c 0.20235,-0.20235 0.217314,-0.36227 0.217314,-2.30093 0,-1.78626 -0.02568,-2.11192 -0.179792,-2.28231 -0.155671,-0.17197 -0.359516,-0.19877 -1.513778,-0.19877 -1.067717,0 -1.36798,0.0342 -1.504688,0.17086 -0.143834,0.14383 -0.170858,0.51188 -0.170858,2.32889 0,1.81699 0.02702,2.18508 0.170858,2.32887 0.136239,0.13624 0.433554,0.17086 1.467211,0.17086 1.151492,0 1.320697,-0.0243 1.513778,-0.21732 z m 19.306424,1.40979 c -0.170858,-0.0512 -0.408116,-0.18136 -0.527359,-0.28928 -0.499888,-0.45238 -0.520614,-0.60919 -0.520614,-3.94083 v -3.15716 h 0.706436 0.706436 v 2.92109 c 0,2.36436 0.02881,2.94505 0.151427,3.04674 0.100281,0.0831 0.5687,0.11524 1.38569,0.0949 l 1.234264,-0.0308 0.02881,-3.0159 0.02881,-3.01592 h 0.704716 0.704716 v 3.2115 c 0,3.65006 -0.0134,3.72164 -0.795148,4.07631 -0.380332,0.17265 -0.703532,0.20526 -1.976233,0.19945 -0.836847,-0.004 -1.661275,-0.0489 -1.832088,-0.10006 z m -15.937308,-3.6921 v -3.69517 h 2.450727 c 2.654885,0 2.847832,0.0357 3.29979,0.61024 0.216867,0.27561 0.226962,0.41368 0.226962,3.08493 0,3.86579 0.162817,3.69516 -3.526752,3.69516 h -2.450727 z m 4.434197,2.26058 c 0.09246,-0.0925 0.130433,-0.7487 0.130433,-2.26058 0,-1.51188 -0.03797,-2.16801 -0.130433,-2.26057 -0.08844,-0.0884 -0.596551,-0.13043 -1.57589,-0.13043 h -1.445458 v 2.391 2.39099 h 1.445458 c 0.979339,0 1.487535,-0.042 1.57589,-0.13044 z m 5.347114,-1.66284 v -3.09742 h -1.195492 -1.195491 v -0.59773 -0.59776 h 3.043079 3.043079 v 0.59407 0.59407 l -1.168333,0.0308 -1.16831,0.0308 -0.02881,3.07026 -0.02881,3.07024 h -0.650399 -0.650399 z m 5.868799,-6.19484 v -0.59773 h 0.706436 0.706436 v 0.59773 0.59776 h -0.706436 -0.706436 z m 2.717042,0 v -0.59773 h 0.760776 0.760753 v 0.59773 0.59776 h -0.760753 -0.760776 z"
       id="path1086" />
    <path
       style="fill:#000000;stroke-width:0.999999"
       d="m 124.95236,172.82327 c 0,-1.16487 2.57205,-13.45873 3.46509,-16.56238 0.76815,-2.66956 1.40208,-3.83642 2.75709,-5.07482 1.62549,-1.48563 2.81741,-1.86646 6.18735,-1.97692 l 2.78581,-0.0914 v 1.42455 1.42458 l -2.29199,-0.11301 c -3.27721,-0.16148 -4.77,0.42359 -5.99024,2.34747 -0.83617,1.31838 -2.02407,5.49772 -1.5626,5.49772 0.0708,0 0.83336,-0.35412 1.69449,-0.78691 2.18146,-1.09639 4.07939,-1.64435 5.69535,-1.64435 1.45028,0 2.12293,0.29341 2.30966,1.00755 0.0614,0.23458 -0.0464,0.60269 -0.25028,0.85436 -0.30426,0.37575 -1.06401,0.5699 -5.05612,1.29217 -2.5839,0.46751 -4.74147,0.89345 -4.79456,0.94653 -0.0531,0.0532 -0.61705,2.70791 -1.25325,5.89956 l -1.15667,5.80298 h -1.26957 c -0.86591,0 -1.26956,-0.0788 -1.26956,-0.24789 z m 11.39497,-1.66887 c -1.09965,-0.48921 -1.38214,-1.95562 -0.6625,-3.43896 0.54531,-1.12404 4.15421,-5.29103 5.71922,-6.60369 1.57359,-1.31985 3.18227,-2.3659 4.17296,-2.71346 0.97688,-0.34275 3.08008,-0.60116 3.08008,-0.37844 0,0.0954 -0.88893,0.80189 -1.97538,1.57029 -3.45234,2.44166 -6.18139,4.81551 -7.4536,6.48348 -0.29066,0.38107 -0.70838,1.16635 -0.92829,1.74508 l -0.3998,1.05221 0.62199,-0.1244 c 0.34211,-0.0683 0.9618,-0.35514 1.37711,-0.63716 1.39789,-0.94927 4.22932,-3.56751 5.43458,-5.02534 0.65783,-0.79568 1.56074,-1.8144 2.00647,-2.26379 l 0.81042,-0.81705 0.0648,0.67588 c 0.0357,0.37173 -0.1646,1.47579 -0.4451,2.45347 -0.66237,2.30908 -0.85828,3.75977 -0.53479,3.95971 0.81422,0.50321 6.35872,-5.0949 7.52288,-7.59559 0.33718,-0.7243 0.72064,-1.53693 0.85214,-1.80584 0.2866,-0.58612 1.28193,-1.23141 1.90102,-1.23245 0.72251,-0.001 1.48769,0.44248 1.79807,1.0427 0.41106,0.79492 0.0753,2.92705 -0.91339,5.79759 -0.77199,2.24166 -0.77871,2.2864 -0.37656,2.50161 0.3442,0.18426 0.63104,0.0677 1.79906,-0.73029 1.74494,-1.19227 2.53703,-2.08795 2.82108,-3.19004 0.94318,-3.65962 2.00428,-5.99691 3.40652,-7.5037 1.58279,-1.70078 3.17715,-2.18305 4.22754,-1.2787 0.51458,0.44302 0.5674,0.61106 0.55717,1.77279 -0.009,0.99678 -0.13936,1.5322 -0.58505,2.3977 -0.7538,1.46402 -2.07077,3.11071 -3.45342,4.31801 -1.29598,1.13164 -1.40378,1.63497 -0.55394,2.58612 0.84207,0.94242 1.65431,0.88911 3.29135,-0.21597 1.40449,-0.94823 3.60264,-2.96788 4.86201,-4.46725 0.71135,-0.8469 0.83119,-1.18288 1.51668,-4.25231 0.98629,-4.41631 1.96341,-7.59621 3.01777,-9.82086 0.99982,-2.10957 1.75412,-3.08136 2.69777,-3.47565 0.58145,-0.24296 0.75079,-0.23874 1.27384,0.0317 0.92456,0.47811 1.30078,1.2061 1.27141,2.46024 -0.046,1.96241 -0.84172,3.85194 -3.11015,7.38513 -1.93034,3.00651 -2.2905,4.12906 -2.30433,7.18194 -0.0112,2.68973 0.22618,3.41051 1.20957,3.65732 0.73446,0.18426 2.3443,-0.67974 4.14838,-2.22664 0.83575,-0.71662 1.55499,-1.26784 1.59834,-1.22493 0.18716,0.18537 -1.39952,2.50335 -2.57475,3.76148 -1.55394,1.66353 -2.91234,2.40591 -4.40242,2.40591 -1.85185,0 -3.11734,-1.34114 -3.43333,-3.63854 l -0.13646,-0.99258 -1.60486,1.99515 c -2.35603,2.92906 -4.0923,4.0542 -6.25625,4.0542 -1.23715,0 -2.5475,-0.68875 -3.37857,-1.77583 l -0.63699,-0.83325 -1.8329,1.38967 c -2.88446,2.18691 -4.5774,3.12015 -5.68364,3.13317 l -0.93447,0.0112 0.0156,-0.91171 c 0.0112,-0.61857 0.34685,-1.69344 1.04755,-3.34299 1.13316,-2.66766 1.43856,-3.8212 1.07167,-4.04794 -0.53705,-0.33194 -1.27429,0.21217 -3.06964,2.26526 -3.59449,4.11064 -6.15003,6.34606 -7.58707,6.63668 -0.87968,0.17778 -1.63784,-0.46208 -1.85634,-1.567 l -0.16885,-0.8538 -1.00681,0.93217 c -3.0655,2.83825 -5.45675,3.98606 -6.93453,3.32858 z m 31.37346,-13.21095 c 1.16364,-1.24157 1.63505,-2.04002 1.56481,-2.65042 -0.13758,-1.19641 -1.61125,-0.57089 -2.43065,1.03176 -0.37917,0.74163 -0.96739,2.57358 -0.97407,3.03369 -0.004,0.24854 1.01488,-0.53477 1.83991,-1.41503 z m 12.43653,-6.74668 c 0.29892,-0.43134 0.71858,-1.34687 0.93261,-2.03448 0.39639,-1.27362 0.54007,-3.76258 0.20526,-3.55565 -0.28816,0.178 -1.44557,3.06436 -2.05121,5.11515 l -0.54985,1.86186 0.45984,-0.30129 c 0.25291,-0.16573 0.7044,-0.65422 1.00335,-1.08559 z m -27.27868,1.83298 c -1.48554,-0.47509 -2.35873,-1.02552 -3.37389,-2.12685 -1.05624,-1.14589 -1.75968,-2.545 -2.06832,-4.11379 -0.64356,-3.2712 1.2336,-6.8393 4.42401,-8.40909 1.26446,-0.62217 1.48075,-0.66335 3.48356,-0.66335 1.99859,0 2.22084,0.042 3.46911,0.6567 3.90067,1.92064 5.55902,6.53175 3.76128,10.45851 -1.64106,3.58457 -5.87778,5.41889 -9.69575,4.19787 z m 5.34591,-1.1797 c 1.38449,-0.60651 3.0042,-2.22597 3.64091,-3.64034 0.665,-1.4772 0.63606,-4.03569 -0.0625,-5.52923 -0.61726,-1.31958 -1.93116,-2.68946 -3.19627,-3.3324 l -0.90999,-0.46248 -0.65203,0.78043 c -0.75055,0.89834 -0.94593,1.76754 -0.85454,3.8016 l 0.0648,1.43967 2.17801,9e-4 2.17797,9.1e-4 v 0.70912 0.70912 h -2.22863 -2.22866 v 2.29856 c 0,2.62717 -0.0849,2.79045 -1.70297,3.27743 -1.03654,0.31197 -1.15037,0.23811 -0.47503,-0.3081 0.41935,-0.33915 0.46127,-0.56493 0.52347,-2.81828 l 0.0677,-2.44961 h -2.14432 -2.1443 v -0.60781 -0.60781 l 1.67148,-0.002 c 2.68935,-0.004 2.54938,0.12842 2.5224,-2.39655 -0.0134,-1.1876 0.0478,-2.36543 0.13445,-2.61736 0.18225,-0.53004 1.09807,-1.06146 1.829,-1.06146 1.01928,0 0.69518,-0.36941 -0.43415,-0.49487 -4.221,-0.46888 -8.03899,3.25006 -7.69799,7.4983 0.38639,4.81348 5.44175,7.77548 9.92135,5.81303 z m -6.8009,-0.82809 c -0.48014,-0.53057 -0.41372,-1.18959 0.15768,-1.56396 0.56432,-0.36975 1.16867,-0.16483 1.53562,0.52088 0.53109,0.99234 -0.92652,1.89027 -1.69323,1.04308 z m 6.59833,-9.0621 c -0.49607,-0.34745 -0.61015,-1.26714 -0.20726,-1.67012 0.61272,-0.61274 1.7829,-0.0391 1.7829,0.87419 0,0.4078 -0.64128,1.11134 -1.01302,1.11134 -0.0619,0 -0.31507,-0.14205 -0.56273,-0.31541 z"
       id="path1088" />
  </g>
</svg>
